<svg width="30" height="30" viewBox="0 0 30 30" fill="none" xmlns="http://www.w3.org/2000/svg">
<rect width="30" height="30" rx="10" fill="#F6F5F8"/>
<g clip-path="url(#clip0_28_2)">
<path fill-rule="evenodd" clip-rule="evenodd" d="M18.0317 12.2491C18.255 11.8623 18.255 11.3858 18.0317 10.9991L16.1783 7.78894C15.6972 6.95561 14.4944 6.95561 14.0132 7.78894L6.81826 20.251C6.33713 21.0844 6.93854 22.126 7.90079 22.126H11.6076C12.0541 22.126 12.4668 21.8878 12.6901 21.501L18.0317 12.2491ZM22.2907 22.126C23.253 22.126 23.8544 21.0844 23.3733 20.251L20.7616 15.7275C20.2805 14.8942 19.0777 14.8942 18.5965 15.7275L15.9849 20.251C15.5038 21.0844 16.1052 22.126 17.0675 22.126H22.2907Z" fill="#167B69"/>
</g>
<defs>
<clipPath id="clip0_28_2">
<rect width="20" height="20" fill="white" transform="translate(5 5)"/>
</clipPath>
</defs>
</svg>
